# Blender 3.3.1
# www.blender.org
mtllib cross.mtl
o Cube
v 1.000000 1.000000 -1.000000
v 1.000000 -1.000000 -1.000000
v 1.000000 1.000000 1.000000
v 1.000000 -1.000000 1.000000
v 1.000000 4.070910 1.000000
v 1.000000 4.070910 -1.000000
v 3.435982 -1.000000 1.000000
v 1.000000 -7.454908 -1.000000
v 1.000000 -7.454908 1.000000
v 3.435982 1.000000 -1.000000
v 3.435982 -1.000000 -1.000000
v 3.435982 1.000000 1.000000
v 3.435982 -1.000000 1.000000
v 0.000000 -1.000000 -1.000000
v 0.000000 1.000000 1.000000
v 0.000000 -1.000000 1.000000
v 0.000000 1.000000 -1.000000
v 0.000000 4.070910 1.000000
v 0.000000 4.070910 -1.000000
v 0.000000 -7.454908 -1.000000
v 0.000000 -7.454908 1.000000
v -1.000000 1.000000 -1.000000
v -1.000000 -1.000000 -1.000000
v -1.000000 1.000000 1.000000
v -1.000000 -1.000000 1.000000
v -1.000000 4.070910 1.000000
v -1.000000 4.070910 -1.000000
v -3.435982 -1.000000 1.000000
v -1.000000 -7.454908 -1.000000
v -1.000000 -7.454908 1.000000
v -3.435982 1.000000 -1.000000
v -3.435982 -1.000000 -1.000000
v -3.435982 1.000000 1.000000
v -3.435982 -1.000000 1.000000
vn -0.0000 -1.0000 -0.0000
vn -0.0000 -0.0000 -1.0000
vn -0.0000 -0.0000 1.0000
vn 1.0000 -0.0000 -0.0000
vn -0.0000 1.0000 -0.0000
vn -1.0000 -0.0000 -0.0000
vt 0.625000 0.500000
vt 0.375000 0.500000
vt 0.625000 0.750000
vt 0.375000 0.750000
vt 0.625000 0.750000
vt 0.625000 0.500000
vt 0.375000 0.500000
vt 0.375000 0.750000
vt 0.625000 0.500000
vt 0.375000 0.500000
vt 0.625000 0.750000
vt 0.375000 0.750000
vt 0.375000 0.375000
vt 0.625000 0.875000
vt 0.375000 0.875000
vt 0.625000 0.375000
vt 0.625000 0.875000
vt 0.750000 0.750000
vt 0.750000 0.500000
vt 0.625000 0.375000
vt 0.250000 0.500000
vt 0.375000 0.375000
vt 0.250000 0.750000
vt 0.375000 0.875000
vt 0.625000 0.500000
vt 0.375000 0.500000
vt 0.625000 0.750000
vt 0.375000 0.750000
vt 0.625000 0.750000
vt 0.625000 0.500000
vt 0.375000 0.500000
vt 0.375000 0.750000
vt 0.625000 0.500000
vt 0.375000 0.500000
vt 0.625000 0.750000
vt 0.375000 0.750000
s 0
usemtl Material
f 4/4/1 2/2/1 11/10/1 13/12/1
f 14/13/2 17/16/2 1/1/2 2/2/2
f 15/14/3 3/3/3 5/5/3 18/17/3
f 3/3/4 1/1/4 6/6/4 5/5/4
f 20/21/1 8/7/1 9/8/1 21/23/1
f 2/2/4 4/4/4 9/8/4 8/7/4
f 14/13/2 2/2/2 8/7/2 20/22/2
f 11/10/4 10/9/4 12/11/4 13/12/4
f 1/1/5 3/3/5 12/11/5 10/9/5
f 3/3/3 4/4/3 13/12/3 12/11/3
f 2/2/2 1/1/2 10/9/2 11/10/2
f 4/4/3 16/15/3 21/24/3 9/8/3
f 6/6/5 19/19/5 18/18/5 5/5/5
f 4/4/3 3/3/3 15/14/3 16/15/3
f 1/1/2 17/16/2 19/20/2 6/6/2
f 25/28/1 34/36/1 32/34/1 23/26/1
f 14/13/2 23/26/2 22/25/2 17/16/2
f 15/14/3 18/17/3 26/29/3 24/27/3
f 24/27/6 26/29/6 27/30/6 22/25/6
f 20/21/1 21/23/1 30/32/1 29/31/1
f 23/26/6 29/31/6 30/32/6 25/28/6
f 14/13/2 20/22/2 29/31/2 23/26/2
f 32/34/6 34/36/6 33/35/6 31/33/6
f 22/25/5 31/33/5 33/35/5 24/27/5
f 24/27/3 33/35/3 34/36/3 25/28/3
f 23/26/2 32/34/2 31/33/2 22/25/2
f 25/28/3 30/32/3 21/24/3 16/15/3
f 27/30/5 26/29/5 18/18/5 19/19/5
f 25/28/3 16/15/3 15/14/3 24/27/3
f 22/25/2 27/30/2 19/20/2 17/16/2
l 13 7
l 34 28
